<svg xmlns="http://www.w3.org/2000/svg" viewBox="0 0 32 32" fill="none">
  <rect width="32" height="32" rx="7" fill="#0B1F2A"/>
  <!-- main rotor -->
  <path d="M6 11.5h20" stroke="#F4F7F8" stroke-width="1.6" stroke-linecap="round"/>
  <circle cx="16" cy="11.5" r="1.2" fill="#3A8A96"/>
  <!-- mast -->
  <path d="M16 11.5v3.2" stroke="#F4F7F8" stroke-width="1.4" stroke-linecap="round"/>
  <!-- fuselage -->
  <path d="M10.5 15.2c0-.9.7-1.6 1.6-1.6h5.2c2.4 0 4.2 1.5 4.2 3.2v1.1c0 .7-.6 1.3-1.3 1.3h-8.4c-.7 0-1.3-.6-1.3-1.3v-2.7z" fill="#F4F7F8"/>
  <!-- cockpit accent -->
  <path d="M12 14.2h3.2c.4 0 .7.3.7.7v1.1H12v-1.8z" fill="#2A6F7A"/>
  <!-- tail boom -->
  <path d="M21.5 17.2h5.2" stroke="#F4F7F8" stroke-width="1.5" stroke-linecap="round"/>
  <!-- tail fin -->
  <path d="M25.8 14.6v5.2" stroke="#F4F7F8" stroke-width="1.4" stroke-linecap="round"/>
  <!-- skids -->
  <path d="M11.2 21.4h8.4" stroke="#F4F7F8" stroke-width="1.4" stroke-linecap="round"/>
  <path d="M12.4 19.2v2.2M18.4 19.2v2.2" stroke="#F4F7F8" stroke-width="1.3" stroke-linecap="round"/>
</svg>
